<svg width="1255" height="155" viewBox="0 0 1255 155" fill="none" xmlns="http://www.w3.org/2000/svg">
<path d="M63.8981 154.067H10.9668C5.44395 154.067 0.966797 149.59 0.966797 144.067V10.6436C0.966797 5.12071 5.44394 0.643555 10.9668 0.643555H69.3948C72.2585 0.643555 74.9848 1.87129 76.8829 4.01566L129.949 63.9686C135.661 70.4222 131.079 80.5965 122.461 80.5965H83.8981C78.3753 80.5965 73.8981 85.0736 73.8981 90.5965V144.067C73.8981 149.59 69.421 154.067 63.8981 154.067Z" fill="#D0FF3A"/>
<path d="M147.418 144.067V26.845C147.418 17.6623 158.757 13.3347 164.875 20.1823L217.598 79.1917C219.235 81.0246 220.141 83.3965 220.141 85.8544V144.067C220.141 149.59 215.663 154.067 210.141 154.067H157.418C151.895 154.067 147.418 149.59 147.418 144.067Z" fill="#D0FF3A"/>
<path d="M313.39 152.822V58.2566H279.328V43.9474H363.628V58.2566H329.566V152.822H313.39Z" fill="#D0FF3A"/>
<path d="M375.237 152.822V43.9474H445.073V58.2566H391.413V89.5192H434.807V103.828H391.413V138.513H446.784V152.822H375.237Z" fill="#D0FF3A"/>
<path d="M525.996 101.184C533.928 105.85 539.061 114.405 539.683 124.981L541.861 152.822H526.152L523.974 126.381C523.196 116.738 516.819 109.894 507.487 109.894H480.269V152.822H464.093V43.9474H506.71C528.64 43.9474 542.016 57.1679 542.016 76.6098C542.016 88.2749 535.639 96.3628 525.996 101.184ZM480.269 57.9456V95.5851H506.243C520.397 95.5851 525.84 86.4085 525.84 76.6098C525.84 66.6555 520.397 57.9456 506.243 57.9456H480.269Z" fill="#D0FF3A"/>
<path d="M627.61 101.184C635.543 105.85 640.675 114.405 641.297 124.981L643.475 152.822H627.766L625.588 126.381C624.811 116.738 618.434 109.894 609.102 109.894H581.883V152.822H565.707V43.9474H608.324C630.254 43.9474 643.63 57.1679 643.63 76.6098C643.63 88.2749 637.254 96.3628 627.61 101.184ZM581.883 57.9456V95.5851H607.857C622.011 95.5851 627.455 86.4085 627.455 76.6098C627.455 66.6555 622.011 57.9456 607.857 57.9456H581.883Z" fill="#D0FF3A"/>
<path d="M741.045 152.822L730.624 125.137H684.43L674.01 152.822H657.367L700.14 43.9474H715.071L757.843 152.822H741.045ZM689.874 110.983H725.336L707.605 64.167L689.874 110.983Z" fill="#D0FF3A"/>
<path d="M769.392 152.822V43.9474H839.227V58.2566H785.567V90.7635H828.962V105.073H785.567V152.822H769.392Z" fill="#D0FF3A"/>
<path d="M900.865 154.066C869.758 154.066 846.739 130.425 846.739 98.3847C846.739 66.3445 869.758 42.7031 900.865 42.7031C931.816 42.7031 954.836 66.3445 954.836 98.3847C954.836 130.425 931.816 154.066 900.865 154.066ZM900.865 139.757C922.484 139.757 938.349 122.182 938.349 98.3847C938.349 74.5878 922.484 57.0124 900.865 57.0124C879.246 57.0124 863.225 74.5878 863.225 98.3847C863.225 122.182 879.246 139.757 900.865 139.757Z" fill="#D0FF3A"/>
<path d="M1034.07 101.184C1042 105.85 1047.13 114.405 1047.75 124.981L1049.93 152.822H1034.22L1032.05 126.381C1031.27 116.738 1024.89 109.894 1015.56 109.894H988.34V152.822H972.165V43.9474H1014.78C1036.71 43.9474 1050.09 57.1679 1050.09 76.6098C1050.09 88.2749 1043.71 96.3628 1034.07 101.184ZM988.34 57.9456V95.5851H1014.31C1028.47 95.5851 1033.91 86.4085 1033.91 76.6098C1033.91 66.6555 1028.47 57.9456 1014.31 57.9456H988.34Z" fill="#D0FF3A"/>
<path d="M1116.52 154.066C1089.3 154.066 1063.79 135.558 1063.79 98.3847C1063.79 61.2118 1089.61 42.7031 1117.14 42.7031C1142.8 42.7031 1162.4 57.9456 1164.58 79.4094H1147.78C1145.6 66.1889 1133.16 57.0124 1117.14 57.0124C1095.67 57.0124 1079.96 71.7882 1079.96 98.3847C1079.96 124.981 1095.67 140.224 1116.98 140.224C1133.62 140.224 1148.71 130.269 1148.71 116.116C1148.71 111.916 1145.91 108.961 1141.4 108.961H1117.76V95.8962H1145.45C1154 95.8962 1164.27 102.584 1164.27 114.249V152.822H1149.64V134.469C1144.98 146.134 1131.91 154.066 1116.52 154.066Z" fill="#D0FF3A"/>
<path d="M1183.14 152.822V43.9474H1252.97V58.2566H1199.32V89.5192H1242.71V103.828H1199.32V138.513H1254.69V152.822H1183.14Z" fill="#D0FF3A"/>
</svg>
