<svg width="623" height="436" viewBox="0 0 623 436" fill="none" xmlns="http://www.w3.org/2000/svg">
<path d="M179.182 435.631H28.9589C13.2846 435.631 0.578125 422.925 0.578125 407.251V28.5854C0.578125 12.9111 13.2846 0.20459 28.9589 0.20459H194.782C202.91 0.20459 210.647 3.68903 216.034 9.77492L366.639 179.926C382.851 198.242 369.848 227.117 345.388 227.117H235.944C220.269 227.117 207.563 239.824 207.563 255.498V407.251C207.563 422.925 194.856 435.631 179.182 435.631Z" fill="#D0FF3A"/>
<path d="M416.219 407.251V74.5663C416.219 48.5052 448.4 36.2231 465.764 55.6572L615.395 223.13C620.042 228.332 622.611 235.064 622.611 242.04V407.251C622.611 422.925 609.905 435.632 594.231 435.632H444.6C428.925 435.632 416.219 422.925 416.219 407.251Z" fill="#D0FF3A"/>
</svg>
