<svg width="1444" height="281" viewBox="0 0 1444 281" fill="none" xmlns="http://www.w3.org/2000/svg">
<rect x="0.966797" y="0.300781" width="1442.38" height="280.667" fill="black"/>
<path d="M140.601 214.346H87.6699C82.1471 214.346 77.6699 209.869 77.6699 204.346V70.9231C77.6699 65.4002 82.1471 60.9231 87.6699 60.9231H146.098C148.962 60.9231 151.688 62.1508 153.586 64.2952L206.652 124.248C212.364 130.702 207.782 140.876 199.164 140.876H160.601C155.078 140.876 150.601 145.353 150.601 150.876V204.346C150.601 209.869 146.124 214.346 140.601 214.346Z" fill="#D0FF3A"/>
<path d="M224.121 204.346V87.1245C224.121 77.9419 235.46 73.6142 241.578 80.4619L294.301 139.471C295.939 141.304 296.844 143.676 296.844 146.134V204.346C296.844 209.869 292.367 214.346 286.844 214.346H234.121C228.598 214.346 224.121 209.869 224.121 204.346Z" fill="#D0FF3A"/>
<path d="M430.093 213.102V118.536H396.031V104.227H480.331V118.536H446.269V213.102H430.093Z" fill="#D0FF3A"/>
<path d="M491.941 213.102V104.227H561.776V118.536H508.116V149.799H551.511V164.108H508.116V198.792H563.487V213.102H491.941Z" fill="#D0FF3A"/>
<path d="M642.699 161.464C650.631 166.13 655.764 174.684 656.386 185.261L658.564 213.102H642.855L640.677 186.661C639.9 177.017 633.523 170.174 624.19 170.174H596.972V213.102H580.796V104.227H623.413C645.343 104.227 658.719 117.447 658.719 136.889C658.719 148.554 652.342 156.642 642.699 161.464ZM596.972 118.225V155.865H622.946C637.1 155.865 642.544 146.688 642.544 136.889C642.544 126.935 637.1 118.225 622.946 118.225H596.972Z" fill="#D0FF3A"/>
<path d="M744.313 161.464C752.246 166.13 757.378 174.684 758.001 185.261L760.178 213.102H744.469L742.291 186.661C741.514 177.017 735.137 170.174 725.805 170.174H698.586V213.102H682.41V104.227H725.027C746.958 104.227 760.334 117.447 760.334 136.889C760.334 148.554 753.957 156.642 744.313 161.464ZM698.586 118.225V155.865H724.56C738.714 155.865 744.158 146.688 744.158 136.889C744.158 126.935 738.714 118.225 724.56 118.225H698.586Z" fill="#D0FF3A"/>
<path d="M857.748 213.102L847.328 185.416H801.134L790.713 213.102H774.07L816.843 104.227H831.774L874.546 213.102H857.748ZM806.577 171.263H842.039L824.308 124.447L806.577 171.263Z" fill="#D0FF3A"/>
<path d="M886.095 213.102V104.227H955.93V118.536H902.27V151.043H945.665V165.352H902.27V213.102H886.095Z" fill="#D0FF3A"/>
<path d="M1017.57 214.346C986.461 214.346 963.442 190.705 963.442 158.664C963.442 126.624 986.461 102.983 1017.57 102.983C1048.52 102.983 1071.54 126.624 1071.54 158.664C1071.54 190.705 1048.52 214.346 1017.57 214.346ZM1017.57 200.037C1039.19 200.037 1055.05 182.461 1055.05 158.664C1055.05 134.867 1039.19 117.292 1017.57 117.292C995.949 117.292 979.929 134.867 979.929 158.664C979.929 182.461 995.949 200.037 1017.57 200.037Z" fill="#D0FF3A"/>
<path d="M1150.77 161.464C1158.7 166.13 1163.84 174.684 1164.46 185.261L1166.64 213.102H1150.93L1148.75 186.661C1147.97 177.017 1141.59 170.174 1132.26 170.174H1105.04V213.102H1088.87V104.227H1131.48C1153.41 104.227 1166.79 117.447 1166.79 136.889C1166.79 148.554 1160.41 156.642 1150.77 161.464ZM1105.04 118.225V155.865H1131.02C1145.17 155.865 1150.62 146.688 1150.62 136.889C1150.62 126.935 1145.17 118.225 1131.02 118.225H1105.04Z" fill="#D0FF3A"/>
<path d="M1233.22 214.346C1206 214.346 1180.49 195.837 1180.49 158.664C1180.49 121.491 1206.31 102.983 1233.84 102.983C1259.5 102.983 1279.1 118.225 1281.28 139.689H1264.48C1262.3 126.468 1249.86 117.292 1233.84 117.292C1212.38 117.292 1196.67 132.068 1196.67 158.664C1196.67 185.261 1212.38 200.503 1233.69 200.503C1250.33 200.503 1265.41 190.549 1265.41 176.395C1265.41 172.196 1262.61 169.241 1258.1 169.241H1234.46V156.176H1262.15C1270.7 156.176 1280.97 162.864 1280.97 174.529V213.102H1266.35V194.748C1261.68 206.414 1248.62 214.346 1233.22 214.346Z" fill="#D0FF3A"/>
<path d="M1299.84 213.102V104.227H1369.68V118.536H1316.02V149.799H1359.41V164.108H1316.02V198.792H1371.39V213.102H1299.84Z" fill="#D0FF3A"/>
</svg>
